<?xml version="1.0" standalone="no"?>
<!DOCTYPE svg PUBLIC "-//W3C//DTD SVG 20010904//EN"
 "http://www.w3.org/TR/2001/REC-SVG-20010904/DTD/svg10.dtd">
<svg version="1.0" xmlns="http://www.w3.org/2000/svg"
 width="128.000000pt" height="128.000000pt" viewBox="0 0 128.000000 128.000000"
 preserveAspectRatio="xMidYMid meet">

<g transform="translate(0.000000,128.000000) scale(0.100000,-0.100000)"
fill="#000000" stroke="none">
<path d="M253 1208 c-20 -26 -33 -83 -33 -149 0 -54 -5 -78 -27 -121 -26 -49
-28 -62 -27 -163 0 -127 20 -194 78 -261 34 -40 126 -96 179 -108 23 -5 26
-10 21 -32 -7 -28 18 -64 46 -64 18 0 50 30 50 47 0 6 9 22 21 37 42 53 15 85
-93 106 -79 16 -146 62 -178 125 -22 43 -25 62 -25 146 0 90 2 99 32 147 30
49 31 54 26 128 l-6 76 24 -7 c13 -4 49 -21 79 -37 53 -30 56 -30 116 -19 79
14 180 14 259 -1 57 -10 65 -9 91 9 31 22 99 53 117 53 6 0 8 -28 4 -77 -6
-75 -5 -80 26 -128 30 -46 32 -55 32 -140 0 -78 -4 -97 -28 -147 -42 -85 -91
-114 -245 -143 -48 -10 -56 -39 -26 -92 22 -38 24 -53 24 -168 0 -69 5 -135
10 -146 13 -23 62 -26 80 -4 9 11 11 57 9 169 l-4 154 40 12 c61 18 140 76
179 133 74 108 87 279 30 393 -23 47 -28 70 -25 111 1 28 -4 77 -13 107 -13
45 -21 57 -42 62 -41 10 -104 -3 -165 -34 -50 -26 -63 -29 -101 -21 -56 11
-191 11 -247 0 -39 -8 -52 -5 -115 25 -74 36 -154 46 -173 22z"/>
<path d="M102 438 c-25 -25 -14 -66 27 -99 22 -17 52 -56 67 -86 44 -86 102
-123 195 -123 30 0 37 -5 50 -32 9 -21 22 -34 37 -36 39 -6 52 14 52 83 0 81
-11 90 -97 87 -88 -4 -119 10 -148 69 -34 66 -115 149 -147 149 -13 0 -29 -5
-36 -12z"/>
</g>
</svg>
