<?xml version="1.0" standalone="no"?>
<!DOCTYPE svg PUBLIC "-//W3C//DTD SVG 20010904//EN"
 "http://www.w3.org/TR/2001/REC-SVG-20010904/DTD/svg10.dtd">
<svg version="1.0" xmlns="http://www.w3.org/2000/svg"
 width="128.000000pt" height="128.000000pt" viewBox="0 0 128.000000 128.000000"
 preserveAspectRatio="xMidYMid meet">

<g transform="translate(0.000000,128.000000) scale(0.100000,-0.100000)"
fill="#000000" stroke="none">
<path d="M51 1244 c-19 -14 -22 -22 -16 -53 9 -48 9 -66 -2 -656 -6 -354 -6
-513 2 -518 5 -5 107 -5 225 0 118 4 319 8 447 8 127 0 226 3 221 6 -6 4 0 10
12 14 13 4 25 3 29 -3 4 -7 63 -12 147 -14 l140 -3 2 618 1 617 -592 0 c-531
0 -595 -2 -616 -16z m465 -232 c17 -11 34 -48 34 -73 0 -28 -80 -109 -109
-109 -30 0 -77 26 -85 45 -15 40 -6 77 28 111 28 28 41 34 78 34 23 0 48 -4
54 -8z m183 -218 c35 -10 56 -12 64 -5 8 6 35 5 81 -5 78 -16 126 -37 151 -64
16 -18 16 -20 2 -26 -15 -5 -15 -8 1 -31 13 -21 17 -58 20 -185 4 -142 2 -161
-13 -178 -21 -23 -63 -26 -91 -6 -14 11 -21 32 -26 93 -20 207 -19 200 -49
229 -27 25 -31 26 -55 14 -40 -22 -47 -46 -52 -186 -3 -73 -8 -137 -12 -144
-9 -15 -79 -31 -103 -24 -32 10 -37 41 -37 246 -1 232 4 269 40 279 14 4 25 7
26 8 0 1 24 -6 53 -15z m-179 -19 c17 -20 10 -479 -7 -496 -18 -18 -91 -14
-113 6 -16 14 -20 31 -20 76 0 32 -5 61 -11 65 -15 9 -2 333 13 351 15 19 122
17 138 -2z"/>
</g>
</svg>
