<?xml version="1.0" standalone="no"?>
<!DOCTYPE svg PUBLIC "-//W3C//DTD SVG 20010904//EN"
 "http://www.w3.org/TR/2001/REC-SVG-20010904/DTD/svg10.dtd">
<svg version="1.0" xmlns="http://www.w3.org/2000/svg"
 width="128.000000pt" height="128.000000pt" viewBox="0 0 128.000000 128.000000"
 preserveAspectRatio="xMidYMid meet">

<g transform="translate(0.000000,128.000000) scale(0.100000,-0.100000)"
fill="#000000" stroke="none">
<path d="M23 1243 c-4 -9 -2 -69 3 -132 6 -69 7 -178 3 -271 -5 -85 -8 -304
-6 -487 l1 -332 27 -6 c14 -3 138 -1 275 5 137 6 402 10 589 8 l340 -3 0 180
c0 249 -10 553 -18 561 -12 12 -8 56 9 104 13 37 14 72 9 205 -4 88 -11 165
-16 171 -7 8 -177 12 -610 13 -554 1 -600 0 -606 -16z m852 -265 l26 -12 -22
-17 -23 -17 41 -20 c62 -32 102 -70 129 -123 24 -49 34 -55 99 -61 l30 -3 -34
-22 c-29 -18 -32 -23 -18 -29 26 -9 21 -23 -18 -45 -22 -14 -46 -42 -67 -80
-80 -152 -216 -245 -393 -270 -147 -20 -289 25 -395 127 -68 64 -83 103 -22
56 76 -60 165 -66 249 -17 50 30 53 44 18 79 -21 21 -24 30 -15 45 9 18 5 22
-32 39 -24 11 -52 29 -62 41 -19 21 -19 21 0 21 47 1 45 17 -5 50 -28 17 -51
33 -51 35 0 2 -3 10 -6 19 -5 13 1 16 25 16 17 0 31 3 31 6 0 3 -18 27 -40 53
-53 62 -52 75 3 66 68 -12 147 -48 273 -126 l32 -19 48 67 c90 129 113 153
144 153 16 0 41 -5 55 -12z"/>
</g>
</svg>
