<?xml version="1.0" standalone="no"?>
<!DOCTYPE svg PUBLIC "-//W3C//DTD SVG 20010904//EN"
 "http://www.w3.org/TR/2001/REC-SVG-20010904/DTD/svg10.dtd">
<svg version="1.0" xmlns="http://www.w3.org/2000/svg"
 width="200" height="200" viewBox="0 0 2048.000000 2048.000000"
 preserveAspectRatio="xMidYMid meet">
    <style type="text/css"> 
        .animate-color { 
            animation: animate-color 5s ease-in-out infinite; 
        }
        @keyframes animate-color { 
            0% { fill: #ff0000; } 
            100% { fill: #0000ff; } 
        } 
    </style>


<g transform="translate(0.000000,2048.000000) scale(0.100000,-0.100000)"
class="animate-color" stroke="none">
<path d="M17452 15605 c-92 -77 -270 -599 -352 -1028 -32 -169 -60 -355 -60
-398 0 -87 51 -149 124 -149 47 0 74 16 135 80 65 67 75 117 34 163 -15 16
-15 28 1 140 35 237 98 539 163 774 29 106 41 134 59 144 30 16 42 53 50 161
6 84 6 87 -19 112 -36 35 -94 36 -135 1z"/>
<path d="M8820 15062 c-38 -6 -87 -47 -138 -117 -128 -171 -178 -229 -242
-284 -143 -123 -200 -142 -360 -116 -275 44 -386 -20 -529 -304 l-32 -63 -23
31 c-44 59 -100 92 -197 115 -35 9 -147 36 -249 60 -230 56 -335 71 -390 56
-55 -15 -107 -63 -120 -111 -17 -63 1 -105 79 -192 86 -94 104 -143 73 -197
-31 -55 -99 -92 -180 -98 -90 -6 -112 5 -112 58 0 62 19 136 66 258 67 173 57
251 -39 300 -43 23 -57 24 -388 32 -189 5 -381 14 -427 20 -73 11 -89 10 -128
-5 -84 -32 -111 -114 -65 -204 21 -40 22 -48 10 -89 -18 -66 -97 -180 -170
-245 -36 -33 -102 -77 -151 -101 -83 -42 -192 -76 -204 -63 -3 3 8 48 25 100
38 113 47 178 32 234 -23 86 -104 141 -185 127 -89 -14 -287 -108 -586 -277
-111 -63 -254 -137 -264 -137 -2 0 11 39 29 88 59 159 168 358 317 578 74 110
83 143 48 187 -27 34 -105 70 -147 69 -19 -1 -48 -12 -66 -24 -18 -12 -134
-94 -258 -183 -125 -88 -356 -252 -515 -364 -399 -283 -588 -426 -626 -474
-43 -54 -45 -108 -5 -143 35 -30 75 -31 118 -1 193 132 868 605 977 684 l63
45 -42 -73 c-103 -185 -169 -361 -169 -448 0 -130 76 -214 207 -227 47 -5 73
-1 138 21 76 26 233 103 375 185 82 47 270 150 274 150 2 0 -5 -32 -15 -72
-36 -137 -18 -220 61 -277 83 -60 230 -66 390 -15 216 68 393 196 509 369 48
73 111 208 111 242 1 44 4 45 234 35 119 -5 219 -12 222 -14 2 -3 -8 -45 -22
-94 -22 -72 -28 -109 -28 -194 -1 -96 2 -110 28 -164 71 -146 202 -209 408
-196 98 7 113 10 195 51 187 92 289 258 268 439 l-7 58 84 -20 c45 -11 100
-24 120 -29 l36 -9 4 -139 c3 -136 4 -140 33 -182 71 -101 176 -109 292 -23
64 48 119 139 251 414 23 47 56 102 74 124 l34 38 99 -22 c169 -38 292 -27
416 35 l46 24 6 -73 c20 -230 147 -382 392 -466 89 -31 113 -35 216 -36 98 -2
124 -6 159 -24 63 -32 128 -29 208 11 80 39 217 153 307 256 38 43 74 84 80
91 9 10 20 -5 51 -65 88 -175 223 -252 470 -269 166 -12 537 39 909 125 286
66 576 145 777 211 67 21 124 38 126 36 2 -2 -17 -30 -42 -63 -63 -82 -116
-187 -116 -231 0 -83 66 -152 147 -152 93 0 250 97 399 246 l92 91 62 7 c179
20 459 130 647 253 13 9 25 14 27 12 2 -2 -7 -38 -21 -79 -14 -41 -44 -141
-68 -223 -36 -122 -49 -154 -78 -186 -126 -139 -217 -346 -217 -491 1 -109 63
-190 148 -190 116 0 172 84 261 390 24 80 47 159 52 176 13 44 56 60 231 89
81 13 182 36 225 50 93 31 238 100 311 149 28 19 52 30 52 25 0 -40 -45 -176
-70 -212 -43 -61 -69 -143 -82 -262 -22 -203 17 -304 125 -322 72 -11 136 48
151 142 36 226 60 330 82 349 74 69 273 155 544 235 587 175 750 242 915 378
76 62 94 102 71 156 -32 79 -79 76 -258 -16 -167 -86 -325 -139 -658 -222
-237 -59 -419 -112 -496 -145 l-45 -20 6 23 c21 67 109 280 128 306 12 16 73
96 135 178 111 146 182 266 182 307 -1 45 -36 102 -76 121 -70 33 -155 -6
-232 -108 -73 -98 -128 -183 -180 -278 -44 -82 -68 -111 -174 -215 -181 -177
-312 -263 -508 -332 -81 -28 -277 -69 -287 -59 -8 8 103 327 153 442 43 98 57
120 129 195 153 160 205 239 205 314 0 54 -33 99 -86 116 -29 10 -43 9 -79 -5
-57 -21 -154 -124 -228 -242 -63 -98 -109 -140 -277 -254 -204 -139 -393 -235
-542 -278 -58 -17 -111 -31 -119 -31 -13 1 -69 44 -69 54 0 3 23 17 51 32 82
45 102 112 50 165 -42 41 -76 38 -243 -25 -154 -57 -411 -137 -603 -186 -66
-18 -160 -42 -210 -55 -133 -34 -511 -112 -660 -135 -296 -47 -600 -64 -715
-39 -100 21 -149 93 -150 217 0 91 37 251 86 369 57 139 62 170 34 228 -17 36
-33 52 -64 66 -54 24 -83 24 -136 -3 -35 -18 -53 -38 -89 -98 -92 -155 -195
-317 -240 -379 -55 -76 -180 -231 -187 -231 -2 0 -20 17 -39 39 -44 49 -106
67 -166 50 -83 -25 -156 -117 -203 -256 -22 -64 -24 -68 -61 -75 -83 -18 -239
36 -300 103 -19 21 -37 54 -41 75 -19 104 34 300 153 564 36 80 68 163 71 185
11 100 -78 184 -178 167z m3550 -1066 c0 -2 -12 -12 -27 -21 l-28 -18 19 21
c17 20 36 29 36 18z"/>
<path d="M16929 13611 c-47 -47 -39 -77 51 -197 28 -37 49 -72 47 -78 -1 -6
-88 -68 -192 -138 -263 -176 -303 -218 -289 -293 7 -40 50 -83 84 -86 54 -5
73 3 123 49 55 52 163 127 259 181 l58 33 75 -62 c87 -71 110 -100 159 -197
62 -124 90 -142 454 -288 78 -32 142 -63 142 -69 0 -6 -7 -42 -15 -81 -19 -91
-19 -225 0 -271 8 -19 39 -69 69 -110 30 -41 64 -98 74 -127 20 -54 57 -245
49 -254 -3 -2 -76 22 -164 55 -350 132 -581 194 -1001 267 -142 25 -263 48
-271 50 -16 6 -250 41 -366 55 -44 6 -135 10 -202 10 l-121 0 -21 33 c-88 142
-371 279 -851 411 -164 45 -241 59 -375 71 -38 3 -173 20 -300 36 -287 38
-339 33 -495 -46 -80 -40 -265 -165 -335 -225 -33 -28 -100 -82 -150 -119
-124 -94 -244 -209 -306 -294 -29 -40 -88 -120 -131 -178 -89 -121 -120 -190
-138 -302 -13 -78 -9 -243 6 -281 7 -18 3 -19 -67 -13 -41 4 -165 12 -277 19
-342 20 -545 -4 -1841 -222 -194 -33 -471 -76 -615 -95 -143 -19 -344 -49
-446 -65 -348 -56 -411 -61 -725 -65 -571 -6 -855 -32 -896 -81 -9 -11 -16
-11 -41 2 -36 19 -225 74 -254 74 -20 0 -22 6 -26 103 -5 84 -11 116 -37 179
-33 80 -38 132 -18 183 25 64 152 293 204 367 63 90 75 124 62 173 -20 73 -87
82 -239 30 -80 -27 -475 -115 -517 -115 -15 0 -50 16 -79 36 -64 44 -196 84
-280 84 -34 0 -115 -9 -181 -21 -80 -14 -160 -21 -248 -21 -149 0 -245 -22
-369 -84 -61 -31 -83 -36 -157 -39 -93 -4 -217 -29 -243 -48 -21 -15 -23 -42
-12 -139 4 -43 6 -88 2 -102 -6 -23 -66 -95 -192 -228 -40 -41 -63 -78 -85
-135 -45 -112 -63 -144 -101 -179 -32 -31 -35 -32 -163 -38 -184 -10 -299 -23
-380 -46 -38 -10 -99 -26 -135 -34 l-64 -15 -53 47 c-146 129 -189 163 -251
195 -90 47 -186 74 -310 87 -96 10 -154 23 -292 64 -30 9 -102 19 -160 22 -87
5 -120 3 -193 -15 -48 -11 -105 -30 -127 -41 -38 -19 -47 -20 -173 -10 -160
13 -217 25 -370 80 -94 33 -136 43 -211 47 -140 9 -326 -31 -459 -99 -22 -11
-41 -18 -43 -16 -6 7 115 395 165 524 70 183 150 375 166 400 7 12 25 50 40
85 45 108 234 478 274 538 75 110 99 119 230 92 87 -18 195 -36 366 -61 239
-35 605 -55 1360 -75 363 -10 1915 -12 2175 -4 309 10 1364 54 1805 75 176 8
419 19 540 24 121 6 398 19 615 30 217 12 481 25 585 30 171 8 362 18 950 50
471 25 887 56 1030 76 149 20 301 57 334 81 14 11 32 38 40 60 13 36 12 43 -5
79 -12 25 -32 45 -56 57 -35 17 -46 17 -210 3 -257 -22 -453 -35 -643 -41 -93
-3 -282 -10 -420 -15 -675 -27 -1680 -57 -2485 -75 -135 -3 -410 -10 -611 -16
-350 -9 -4253 -14 -4281 -5 -7 3 -121 7 -253 11 -132 3 -346 10 -475 15 -591
23 -562 23 -597 3 -17 -10 -57 -32 -90 -50 -85 -47 -144 -98 -216 -188 -126
-159 -221 -314 -380 -625 -235 -460 -354 -768 -421 -1097 -19 -92 -58 -265
-86 -383 -59 -244 -69 -340 -71 -665 -2 -219 11 -310 71 -520 53 -186 120
-558 112 -620 -3 -23 -48 -142 -86 -227 -34 -77 -60 -209 -53 -271 4 -29 22
-78 45 -121 22 -40 42 -92 45 -119 8 -60 -10 -127 -133 -502 -49 -148 -108
-331 -130 -405 -23 -74 -47 -153 -55 -175 -32 -88 -59 -260 -59 -375 -1 -200
32 -286 218 -564 141 -212 174 -272 285 -527 109 -250 316 -565 420 -638 137
-95 137 -95 793 -191 333 -48 496 -96 691 -202 49 -27 135 -69 191 -94 170
-76 207 -97 281 -164 39 -36 113 -103 163 -149 116 -106 138 -121 286 -191
276 -132 453 -163 786 -140 192 13 435 10 820 -10 364 -20 770 -31 920 -26 85
3 355 8 600 11 276 4 568 14 770 27 179 12 345 21 370 20 25 0 91 2 147 5
l102 5 69 66 c38 37 92 97 121 134 32 41 60 68 72 68 23 0 41 -32 32 -57 -9
-25 -66 -99 -119 -155 -24 -26 -44 -48 -44 -50 0 -2 60 -4 133 -4 156 -1 409
-27 522 -53 44 -10 170 -40 280 -65 333 -78 493 -108 710 -131 77 -8 151 -18
165 -20 14 -3 99 -12 190 -20 161 -15 288 -28 575 -60 77 -9 203 -22 280 -30
77 -8 174 -19 215 -25 180 -23 368 -41 535 -50 99 -6 191 -13 205 -15 52 -10
733 -7 915 4 642 38 925 116 1520 415 220 110 319 166 410 231 239 171 393
258 700 395 338 150 345 154 611 354 164 123 254 198 349 288 44 42 127 118
185 168 126 110 153 139 240 255 39 52 150 171 265 283 264 258 346 365 455
596 117 245 174 387 265 656 51 151 113 327 138 391 87 220 221 622 235 704
31 175 44 289 38 329 -4 25 -42 152 -85 283 -43 131 -85 263 -94 293 -42 144
-73 442 -102 980 -31 559 -43 670 -105 1010 -17 91 -35 201 -41 245 -35 266
-101 675 -126 780 -18 78 -57 162 -114 247 -44 64 -46 79 -23 175 11 45 14 92
11 138 -15 211 -152 352 -429 441 -45 15 -115 42 -155 60 l-72 32 65 99 c97
146 144 245 144 303 0 61 -30 107 -90 138 -37 20 -56 23 -110 19 -79 -5 -215
-51 -370 -124 -107 -50 -115 -53 -128 -36 -42 59 -132 157 -158 174 -46 28
-90 25 -125 -10z m731 -249 c0 -9 -86 -140 -105 -161 -11 -11 -22 -7 -69 30
-30 24 -54 44 -52 46 8 8 203 93 214 93 6 0 12 -4 12 -8z m-3230 -1117 c0 -34
-112 -188 -171 -235 -46 -36 -51 -38 -86 -28 -56 15 -134 5 -199 -27 -59 -29
-142 -105 -282 -260 -35 -39 -60 -63 -56 -55 15 31 109 167 166 241 48 62 60
86 68 132 11 70 18 84 73 134 89 82 155 102 345 102 78 1 142 -1 142 -4z m818
-176 c65 -28 188 -117 236 -171 55 -60 123 -192 170 -326 19 -56 49 -134 66
-171 42 -96 37 -110 -8 -26 -75 138 -288 443 -387 553 -22 24 -75 69 -118 100
-63 46 -75 58 -60 63 21 9 41 4 101 -22z m-253 -35 c33 -14 74 -30 90 -36 72
-26 164 -111 263 -242 91 -122 235 -332 261 -383 23 -46 8 -163 -22 -163 -20
0 -75 81 -102 149 -12 33 -37 79 -54 104 -17 25 -47 82 -67 128 -58 133 -146
238 -268 320 -61 41 -226 99 -281 99 -16 0 -37 5 -45 10 -12 7 -7 12 20 24 54
24 136 20 205 -10z m1345 -180 c164 -20 201 -26 350 -57 69 -14 190 -37 270
-52 275 -50 612 -141 980 -265 47 -16 104 -34 127 -40 48 -12 45 -5 67 -155
21 -144 51 -328 80 -500 36 -206 63 -455 76 -680 10 -186 27 -485 34 -595 25
-386 93 -750 180 -958 42 -100 76 -222 76 -270 0 -57 -63 -318 -89 -370 -10
-20 -49 -125 -86 -232 -37 -107 -89 -256 -117 -330 -27 -74 -71 -200 -98 -280
-66 -197 -111 -313 -147 -385 l-31 -60 -7 50 c-13 91 -55 275 -67 295 -13 20
-49 40 -74 40 -9 0 -29 -13 -45 -29 -27 -28 -29 -35 -29 -108 0 -90 12 -172
41 -296 26 -106 22 -219 -9 -288 -10 -24 -59 -86 -108 -138 l-89 -94 -11 49
c-8 31 -10 97 -7 179 6 143 -10 323 -33 367 -26 49 -99 50 -131 1 -16 -24 -18
-55 -18 -275 0 -244 0 -248 -22 -263 -27 -19 -43 -74 -41 -136 2 -36 -9 -66
-60 -169 -50 -100 -71 -132 -108 -163 -25 -20 -49 -35 -54 -32 -4 2 -10 33
-12 67 -4 52 1 79 28 161 44 131 66 247 58 311 -16 123 -101 204 -179 172 -77
-32 -101 -143 -90 -407 l7 -165 -41 -81 c-103 -207 -301 -508 -353 -537 -18
-11 -63 -39 -100 -63 -87 -56 -103 -62 -95 -37 3 10 19 62 35 114 16 52 52
142 80 200 64 132 83 199 89 325 9 163 -25 321 -80 376 -38 39 -93 40 -130 3
-35 -35 -44 -88 -57 -354 -6 -124 -17 -264 -24 -312 -12 -78 -19 -94 -62 -154
-78 -111 -186 -235 -269 -311 -64 -59 -90 -76 -144 -93 -36 -12 -144 -62 -240
-111 -95 -49 -181 -89 -189 -89 -11 0 -5 12 20 38 147 154 211 299 237 532 6
52 20 133 31 180 29 119 36 195 20 225 -29 54 -113 46 -144 -13 -8 -16 -25
-83 -36 -148 -36 -204 -149 -509 -241 -650 -73 -111 -135 -174 -172 -174 l-30
0 7 228 c4 125 11 318 16 430 8 169 7 209 -5 237 -15 37 -47 52 -90 41 -45
-11 -55 -51 -65 -257 -13 -257 -35 -385 -99 -572 -49 -144 -52 -147 -155 -169
-48 -11 -91 -17 -94 -13 -3 3 9 81 27 173 36 182 83 321 261 777 98 252 140
384 140 444 0 72 -99 111 -149 58 -59 -64 -314 -760 -375 -1027 -10 -42 -44
-129 -78 -199 -54 -110 -71 -134 -152 -218 -99 -103 -118 -112 -225 -113 l-54
0 6 92 c7 133 64 343 126 466 27 53 63 137 80 186 29 83 168 615 178 681 10
64 -69 110 -121 72 -36 -26 -188 -448 -301 -837 -34 -116 -55 -169 -83 -210
-82 -120 -262 -315 -393 -425 -72 -60 -95 -74 -134 -79 -26 -4 -49 -5 -51 -3
-3 2 8 38 24 78 61 156 133 384 162 513 18 83 -17 146 -81 146 -41 0 -74 -33
-110 -112 -59 -128 -130 -261 -169 -316 -64 -91 -331 -355 -345 -341 -2 2 38
47 89 100 96 101 143 175 170 270 26 88 -2 138 -76 139 -51 0 -69 -19 -197
-211 -117 -177 -161 -222 -293 -301 -51 -32 -71 -38 -115 -38 -61 0 -60 -7
-21 98 24 64 41 76 141 96 42 9 90 22 106 31 90 46 96 156 11 200 -52 27 -193
75 -221 75 -41 0 -75 -34 -133 -133 -59 -100 -56 -95 -116 -247 -23 -58 -48
-112 -56 -121 -20 -22 -312 -33 -376 -14 l-43 12 -8 99 c-9 108 4 202 32 233
9 10 41 23 71 30 35 7 66 22 85 40 16 16 53 36 82 45 94 31 131 108 78 161
-36 37 -89 33 -244 -21 -77 -26 -142 -43 -154 -40 -14 3 -30 23 -44 53 -38 83
-107 106 -164 55 -28 -25 -32 -35 -32 -74 1 -25 10 -63 21 -84 35 -70 38 -312
4 -346 -8 -8 -23 18 -105 190 -15 31 -63 55 -93 48 -37 -10 -60 -42 -79 -109
l-17 -61 -43 104 c-23 58 -60 141 -82 185 -42 82 -86 209 -122 350 -25 99 -86
403 -101 505 -12 83 -32 119 -74 133 -35 12 -69 -3 -93 -40 -15 -23 -19 -55
-22 -215 -6 -327 23 -457 142 -637 62 -92 151 -278 178 -369 17 -58 -9 -143
-57 -187 -19 -17 -39 -46 -45 -63 -11 -31 -13 -32 -68 -32 l-58 0 5 77 c11
198 -68 337 -225 397 -67 26 -72 29 -115 99 -25 39 -51 82 -57 94 -13 25 -61
223 -97 398 -37 183 -87 363 -148 540 -44 125 -62 166 -86 187 -47 43 -107 33
-136 -23 -15 -29 -15 -39 0 -119 9 -48 29 -134 46 -191 16 -57 37 -158 45
-224 16 -128 41 -230 75 -310 12 -28 33 -81 47 -120 24 -67 95 -230 131 -305
9 -19 42 -61 73 -95 33 -34 73 -94 96 -140 39 -78 113 -255 113 -270 0 -8
-268 0 -276 8 -3 2 2 29 10 59 8 32 16 118 18 200 3 123 0 148 -14 170 -24 37
-73 46 -107 21 -26 -20 -30 -32 -52 -148 l-12 -60 -46 142 c-30 92 -58 157
-80 188 -19 27 -53 93 -75 149 -36 88 -46 103 -77 120 -32 17 -40 18 -68 6
-94 -39 -75 -193 59 -470 64 -133 110 -269 110 -327 0 -20 -5 -23 -34 -23 -57
0 -80 15 -144 94 -72 90 -96 149 -117 294 -13 90 -14 125 -5 191 13 98 6 145
-27 171 -35 27 -67 25 -104 -8 -29 -26 -31 -33 -44 -152 -22 -208 -71 -328
-194 -480 -96 -119 -98 -121 -185 -130 -67 -8 -133 -22 -170 -36 -8 -3 -23 10
-35 30 -31 50 -80 76 -164 87 -56 8 -84 18 -127 46 -109 72 -190 176 -190 245
0 82 -43 148 -95 148 -34 0 -73 -37 -81 -75 -3 -18 2 -72 11 -120 22 -111 11
-191 -46 -320 l-41 -92 -75 -7 c-42 -3 -105 -6 -140 -6 -62 0 -63 1 -63 27 0
59 -157 165 -265 178 -31 4 -99 2 -155 -5 -55 -8 -103 -10 -107 -6 -4 4 1 86
10 184 9 97 20 236 23 309 l7 132 -31 31 c-36 36 -71 39 -107 8 -31 -28 -51
-121 -65 -312 -13 -180 -26 -224 -99 -346 -64 -107 -118 -177 -157 -200 -32
-20 -45 -21 -336 -19 -167 1 -314 5 -327 9 -27 7 -29 5 159 150 107 84 233
140 355 160 145 23 172 49 187 183 4 44 23 132 40 196 31 114 32 120 31 324 0
203 -1 209 -23 232 -17 18 -34 25 -61 25 -48 0 -74 -31 -83 -100 -19 -142
-112 -346 -261 -570 -124 -186 -133 -195 -305 -290 -138 -76 -158 -91 -217
-158 -35 -41 -72 -90 -81 -109 l-17 -35 -90 6 c-298 21 -275 15 -269 74 3 26
2 58 -4 71 -6 17 -4 39 6 70 10 32 16 108 19 241 4 218 16 281 60 321 15 14
74 52 131 85 199 113 254 188 297 400 14 65 25 130 25 142 0 13 9 35 20 49 11
14 20 34 20 43 0 14 16 22 68 35 37 10 94 25 127 35 33 10 87 23 120 30 33 6
98 21 145 32 74 18 104 19 230 13 247 -11 438 21 590 100 32 17 53 17 361 14
69 -1 134 5 185 16 46 10 118 17 174 17 117 0 147 11 255 102 44 37 102 79
128 92 86 45 444 140 748 200 101 19 238 49 304 65 66 16 196 40 290 54 265
40 343 59 590 144 127 43 244 82 261 85 l30 7 12 -158 c26 -342 104 -640 234
-895 63 -126 209 -352 261 -406 40 -42 161 -112 252 -148 69 -27 72 -27 330
-28 352 -1 460 16 806 125 190 59 300 119 709 381 107 68 222 140 255 158 33
18 130 75 216 126 365 217 826 433 1104 519 60 18 189 61 285 94 155 54 192
63 315 76 324 36 579 95 810 188 50 20 207 97 350 171 257 133 353 172 615
250 140 42 174 72 190 168 5 29 12 67 16 85 3 17 1 48 -6 67 -16 48 -139 207
-193 248 -24 18 -66 53 -93 77 -28 24 -100 74 -160 111 -60 37 -108 74 -106
80 5 20 -39 60 -101 91 -103 52 -228 76 -477 89 -241 12 -256 9 -524 -121
-292 -141 -285 -136 -571 -390 -156 -139 -228 -177 -386 -204 -52 -9 -141 -31
-199 -50 -58 -19 -168 -49 -245 -65 -623 -136 -871 -180 -1165 -205 -356 -30
-515 -55 -770 -120 l-25 -6 0 84 c0 67 4 89 18 104 9 11 17 26 17 34 0 8 6 24
14 35 8 11 19 46 25 78 6 33 20 73 31 90 33 52 58 109 74 170 8 31 27 71 41
87 13 17 32 55 41 85 14 50 18 54 37 47 12 -4 68 -6 124 -5 56 2 106 1 111 -2
6 -3 4 -23 -5 -47 -7 -23 -15 -78 -15 -123 -2 -69 2 -89 25 -137 15 -31 36
-96 46 -145 21 -98 34 -114 93 -114 67 0 148 92 148 169 0 16 -20 73 -45 126
-59 127 -75 184 -75 265 l0 67 58 17 c81 24 139 54 168 89 24 28 25 35 19 98
-6 61 -5 68 16 88 13 11 26 21 29 21 12 0 120 -79 222 -162 103 -83 287 -205
324 -214 11 -3 120 -4 240 -2 181 2 224 6 244 19 14 9 50 24 81 33 31 9 101
38 155 64 55 27 121 54 149 61 44 11 62 25 145 111 92 94 98 98 178 125 45 15
96 38 112 52 28 23 108 174 124 233 18 65 20 66 104 59 136 -11 173 1 249 85
36 39 73 100 126 208 52 105 127 231 242 403 92 138 171 261 176 275 6 14 21
36 35 50 14 14 54 65 89 114 65 90 168 192 302 299 40 32 78 67 84 78 31 59
-45 189 -196 335 l-115 110 0 85 c0 46 7 120 15 164 18 91 21 298 7 395 -12
78 -43 172 -83 252 -16 32 -39 82 -50 111 -27 67 -110 206 -166 274 -24 29
-43 54 -43 57 0 5 69 -1 220 -20z m-8550 -168 c0 -8 -24 -50 -54 -93 -65 -96
-188 -320 -210 -386 -9 -26 -16 -72 -16 -102 l0 -55 -65 0 c-53 0 -77 -6 -125
-30 -49 -25 -60 -35 -60 -55 0 -37 28 -47 85 -30 26 8 62 15 79 15 27 0 21 -5
-49 -45 -87 -50 -105 -67 -105 -102 0 -35 36 -45 81 -22 l36 18 -4 -24 c-4
-17 2 -28 21 -41 27 -17 27 -16 101 34 l75 51 0 -73 c0 -60 3 -76 20 -91 17
-16 24 -16 44 -6 20 11 32 10 72 -2 118 -38 187 -67 239 -105 98 -69 225 -185
256 -233 31 -49 55 -154 43 -191 -8 -27 -112 -73 -195 -88 -35 -6 -102 -30
-149 -52 l-85 -42 -204 -7 c-276 -11 -330 -23 -377 -84 -25 -34 -29 -48 -34
-144 -8 -127 -31 -192 -76 -208 -16 -6 -76 -25 -134 -43 -58 -17 -134 -44
-170 -60 -110 -49 -112 -48 -153 18 -20 31 -68 95 -107 142 l-71 85 68 6 c92
8 254 60 389 124 135 65 176 97 172 134 -4 34 -39 40 -87 13 -47 -26 -211 -69
-299 -77 -82 -9 -122 6 -220 78 -80 59 -146 81 -224 75 -53 -4 -65 -9 -89 -35
-27 -31 -27 -31 -46 -11 -34 38 -72 50 -137 46 -54 -4 -71 -11 -146 -60 -74
-48 -90 -64 -123 -122 -53 -91 -79 -110 -137 -101 -25 4 -76 9 -115 10 -68 2
-73 4 -170 67 -55 36 -109 75 -119 87 -11 12 -54 44 -97 71 -70 45 -209 184
-209 210 0 4 -3 15 -6 24 -4 11 0 16 14 16 11 0 36 7 55 15 50 21 52 20 52
-22 0 -34 3 -38 27 -41 19 -2 42 7 70 27 24 17 61 38 83 47 l40 16 -57 -51
c-61 -56 -77 -84 -58 -106 20 -24 50 -17 90 19 44 40 119 59 218 57 117 -2
176 -45 233 -167 42 -93 74 -123 110 -104 54 29 -13 179 -138 311 -46 49 -91
106 -100 127 -23 51 -20 161 7 304 l22 117 48 -6 c41 -5 49 -3 59 15 16 31 4
50 -53 83 -53 31 -48 32 44 8 49 -13 117 -11 126 3 4 6 6 34 5 62 -3 78 -11
84 -161 102 -45 5 -61 13 -94 45 -21 22 -43 39 -48 39 -6 0 16 28 47 63 68 74
94 126 95 187 l0 45 30 -50 c39 -65 39 -103 0 -143 -34 -36 -37 -57 -14 -90
18 -26 46 -29 64 -7 11 13 17 10 47 -25 32 -37 39 -40 84 -40 57 0 72 17 83
90 4 24 15 58 25 75 24 40 22 98 -3 103 -10 2 -31 -5 -47 -17 -60 -45 -98 -24
-164 89 -26 44 -58 89 -73 100 -14 11 -22 23 -19 27 4 3 64 8 134 11 121 4
132 7 195 38 136 68 199 83 353 83 94 0 179 7 260 20 66 11 140 21 165 21 65
0 195 -43 257 -86 45 -31 61 -37 106 -36 77 1 435 80 577 126 89 30 90 30 90
12z m7100 -381 c95 -40 259 -123 305 -155 117 -80 187 -96 294 -69 107 27 156
25 227 -11 32 -16 70 -39 84 -49 24 -19 24 -19 -120 -18 -141 2 -150 0 -313
-41 -93 -24 -174 -41 -181 -39 -7 3 -16 18 -19 34 -3 16 -23 54 -44 86 -36 53
-86 97 -290 253 -40 30 -73 57 -73 60 0 2 15 -2 33 -9 17 -8 61 -27 97 -42z
m-448 -265 c310 -105 378 -137 539 -254 l61 -44 -68 -32 -68 -33 -70 23 c-92
29 -223 94 -261 130 -51 46 -259 195 -344 245 -142 83 -126 80 211 -35z
m-1592 -59 l45 -6 0 -135 c1 -74 5 -150 9 -169 8 -33 8 -34 -20 -27 -16 3 -58
9 -94 12 -61 6 -68 4 -111 -25 -25 -17 -68 -59 -95 -93 -27 -35 -87 -102 -133
-150 -89 -93 -116 -108 -201 -108 -33 0 -68 -11 -127 -41 -79 -39 -82 -40
-112 -25 -16 9 -38 16 -48 16 -19 0 -83 -70 -83 -90 0 -23 -31 -70 -47 -70 -8
0 -55 14 -103 30 -48 17 -116 33 -151 36 -101 10 -197 48 -249 99 -72 71 -95
76 -344 86 -249 10 -473 -5 -586 -40 -77 -24 -226 -113 -235 -140 -10 -31 -56
-36 -303 -33 l-234 3 -108 73 c-59 41 -132 92 -162 113 -132 98 -264 148 -373
141 -80 -5 -110 -25 -147 -97 l-27 -52 -198 -3 c-109 -2 -217 -7 -240 -11
l-41 -7 -20 43 c-28 62 -59 100 -127 155 l-59 48 85 12 c47 7 143 11 219 9 74
-2 284 -4 465 -5 361 -1 405 2 775 66 113 19 252 41 310 49 294 40 497 73
1105 180 617 109 926 153 1165 169 76 5 545 -5 600 -13z m-9295 -81 c62 -19
151 -37 235 -46 153 -18 261 -49 335 -98 28 -18 93 -72 145 -121 120 -111 183
-159 306 -235 138 -86 159 -108 219 -235 66 -140 139 -227 250 -297 44 -28 98
-67 120 -87 58 -54 220 -152 267 -163 25 -5 52 -5 67 0 14 5 35 6 46 1 11 -4
53 -8 94 -8 57 -1 81 3 106 19 32 20 80 84 106 143 8 17 44 49 86 78 107 72
118 70 246 -40 152 -131 375 -389 418 -486 39 -87 69 -234 69 -334 l0 -96
-103 -130 c-139 -175 -184 -215 -283 -253 -140 -54 -301 -64 -579 -36 -190 19
-963 28 -1148 13 -85 -6 -152 -19 -240 -45 -141 -42 -196 -68 -290 -136 l-68
-49 -50 108 c-55 119 -76 180 -144 421 -53 190 -80 265 -174 485 -80 189 -139
349 -210 572 -59 185 -86 236 -137 260 -59 28 -97 10 -191 -88 -65 -68 -89
-103 -131 -189 -29 -58 -52 -114 -52 -125 0 -11 18 -80 40 -154 22 -74 56
-192 75 -264 60 -222 106 -343 202 -535 129 -258 274 -460 480 -671 84 -86
150 -159 146 -162 -3 -4 -21 -7 -40 -7 -25 0 -55 17 -130 72 -122 90 -227 197
-350 357 -116 149 -185 259 -302 473 -127 236 -172 312 -302 513 -179 279
-197 289 -298 183 -120 -128 -127 -141 -104 -195 9 -21 33 -141 55 -268 52
-311 68 -374 244 -1000 88 -312 167 -552 209 -635 64 -128 135 -203 215 -228
118 -37 222 -23 370 49 138 68 149 70 212 53 71 -19 143 -18 162 2 21 21 20
67 -1 86 -24 21 -319 164 -401 194 -47 18 -97 27 -177 33 -94 6 -121 12 -179
39 -37 17 -81 41 -98 54 -28 20 -29 22 -12 29 10 4 63 8 117 8 53 1 152 10
220 20 67 11 209 22 317 26 l195 7 79 -46 c101 -58 215 -84 441 -102 39 -3 89
-13 112 -21 22 -8 50 -12 60 -9 13 4 28 -4 50 -26 40 -42 56 -77 77 -162 23
-93 15 -137 -38 -206 -59 -79 -243 -366 -295 -459 -60 -110 -100 -154 -200
-219 -51 -33 -126 -96 -182 -154 l-97 -98 -36 13 c-23 8 -56 35 -91 75 -67 77
-119 151 -111 159 3 3 37 1 75 -6 175 -28 265 -4 342 92 72 91 102 161 107
252 4 79 4 81 -30 125 -43 58 -173 125 -268 140 -98 15 -342 12 -450 -5 -245
-40 -389 -108 -517 -245 l-42 -45 -1 59 c0 67 -23 162 -52 220 -27 53 -116
183 -182 265 -47 58 -268 255 -420 374 -33 26 -115 75 -181 108 -138 68 -131
53 -95 204 40 167 51 456 26 675 -8 69 -17 163 -21 210 l-7 85 47 105 c43 98
121 296 158 400 28 78 94 309 131 457 19 78 42 159 51 179 8 20 15 45 15 56 0
11 32 56 71 99 64 71 115 110 259 199 22 13 70 60 106 103 76 90 112 110 271
143 131 27 256 35 387 24 l126 -10 133 -69 c104 -55 152 -74 227 -90 142 -30
263 -74 335 -121 71 -46 98 -49 103 -9 2 19 -8 36 -46 71 -76 71 -184 121
-356 164 -60 15 -152 50 -228 86 -118 55 -135 61 -225 69 -54 4 -127 8 -162 9
-35 0 -62 2 -59 5 3 3 34 12 69 20 98 22 232 13 354 -25z m-1085 -41 c80 -23
146 -43 148 -44 2 -2 -34 -23 -80 -46 -46 -24 -100 -59 -121 -78 -42 -38 -137
-185 -137 -212 0 -10 -14 -29 -31 -43 -17 -14 -65 -63 -106 -109 -65 -70 -86
-102 -141 -217 -35 -74 -93 -223 -129 -330 -48 -144 -78 -217 -116 -280 l-51
-85 -12 45 c-72 262 -82 357 -66 658 15 271 27 393 49 486 l16 68 91 59 c119
78 215 123 301 143 160 36 211 34 385 -15z m3003 -87 c26 -7 47 -16 47 -20 0
-4 -7 -29 -15 -56 -24 -79 -45 -216 -45 -295 0 -67 -1 -72 -17 -60 -23 20 -43
72 -43 114 0 19 14 78 31 131 31 97 32 137 4 148 -41 15 -75 -40 -136 -219
l-37 -110 -85 -6 c-101 -7 -191 -45 -260 -108 l-45 -42 -30 54 c-16 29 -37 59
-46 66 -9 7 -16 17 -16 21 0 12 116 39 260 61 129 19 151 26 177 59 33 40 -2
104 -62 116 -17 3 -86 -2 -155 -11 -69 -10 -164 -21 -211 -25 -87 -9 -150 -22
-201 -42 -22 -8 -33 -7 -53 6 -35 23 -26 32 39 40 30 3 81 13 113 21 36 9 143
18 280 22 l222 8 46 45 c25 24 59 72 77 106 l32 62 41 -37 c25 -23 59 -42 88
-49z m8061 -81 c54 -24 128 -113 146 -177 8 -29 10 -71 5 -126 -4 -55 -2 -101
6 -133 14 -59 63 -161 92 -192 28 -32 77 -39 118 -18 l32 17 102 -104 101
-104 -32 -70 c-75 -161 -116 -355 -96 -450 41 -195 296 -490 522 -604 50 -26
82 -34 138 -38 62 -4 72 -7 67 -21 -18 -42 -17 -95 0 -127 10 -19 21 -34 24
-34 3 0 24 -16 46 -35 21 -20 63 -49 92 -65 32 -19 59 -42 69 -62 9 -18 25
-43 36 -55 l20 -21 -28 -15 c-16 -9 -56 -43 -89 -76 l-59 -61 -27 48 c-47 81
-86 111 -160 123 -35 6 -95 19 -134 30 -38 10 -84 19 -100 19 -17 0 -46 5 -65
10 -31 9 -37 8 -54 -12 -15 -19 -17 -33 -12 -84 10 -102 47 -195 109 -276 l35
-45 -47 -24 c-43 -22 -59 -24 -251 -27 l-205 -3 -125 81 c-69 45 -152 104
-185 132 -33 27 -86 69 -117 92 l-57 42 34 30 c19 16 37 43 41 59 10 41 -26
172 -86 312 -28 65 -66 159 -85 208 -18 50 -51 137 -73 195 -40 105 -40 105
-26 159 7 30 26 73 41 94 25 36 28 49 29 126 0 59 5 96 16 116 9 17 19 47 23
68 7 35 9 37 47 37 34 0 47 7 95 52 62 59 78 86 88 143 4 22 14 55 23 74 13
29 14 39 2 80 -15 50 -16 82 -5 183 7 59 5 68 -9 74 -10 4 -22 2 -27 -3 -10
-10 -14 -21 -41 -125 -7 -27 -16 -48 -20 -48 -3 0 -20 -11 -37 -26 -28 -23
-35 -25 -91 -18 l-60 7 0 106 c0 159 31 204 120 172 22 -7 32 -6 41 5 17 21 4
43 -37 60 -77 32 -160 -10 -183 -92 -6 -21 -11 -85 -11 -141 0 -56 -5 -124
-12 -152 -9 -40 -9 -53 2 -66 17 -21 42 -19 74 6 24 19 32 20 65 11 44 -14 99
-1 126 28 40 44 50 12 25 -85 -10 -41 -23 -83 -29 -92 -20 -37 -80 -85 -116
-93 -36 -8 -37 -8 -54 33 -10 23 -22 53 -26 67 -10 35 -55 80 -79 80 -11 0
-38 12 -59 27 l-40 28 6 205 c7 265 25 339 109 447 33 43 57 62 122 93 45 22
89 40 98 40 9 0 37 -9 62 -19z m1928 -92 c124 -48 137 -56 193 -114 33 -34 75
-84 94 -111 19 -27 73 -83 119 -124 181 -160 181 -159 189 -354 l6 -129 -84
73 c-112 97 -298 220 -423 280 -225 108 -404 152 -621 153 -287 2 -498 -82
-677 -268 l-56 -58 -93 98 c-52 53 -95 103 -97 110 -2 8 21 51 51 97 30 46 61
95 70 110 23 37 98 58 203 58 65 0 102 -6 171 -30 103 -34 274 -64 319 -55 46
8 64 35 95 141 15 53 36 105 46 116 31 34 93 60 162 67 111 11 187 -3 333 -60z
m-2662 -48 c0 -5 -9 -39 -21 -76 -20 -66 -21 -67 -77 -93 -31 -14 -78 -27
-105 -30 l-50 -5 87 101 c48 55 92 103 99 106 21 8 67 6 67 -3z m-267 -362
c-46 -70 -51 -75 -111 -95 -35 -12 -74 -31 -87 -44 -23 -22 -23 -22 -100 -5
-50 11 -97 16 -133 12 -31 -3 -75 -1 -99 6 -35 9 -43 15 -41 32 3 17 12 21 73
26 39 3 79 10 91 16 12 7 25 8 35 2 40 -25 137 2 234 66 39 26 78 43 119 50
34 7 63 11 64 9 2 -1 -18 -35 -45 -75z m-1638 31 c-123 -13 -370 -22 -362 -13
14 13 111 20 277 20 121 0 140 -1 85 -7z m294 -6 c8 -8 -84 -2 -109 6 -16 6
-1 7 40 3 36 -3 67 -7 69 -9z m-814 -54 c-27 -12 -43 -12 -25 0 8 5 22 9 30 9
10 0 8 -3 -5 -9z m-1560 -36 c61 -99 93 -119 207 -127 54 -5 87 -12 99 -23 28
-26 97 -147 125 -220 13 -36 34 -84 45 -106 12 -23 49 -111 84 -197 34 -86 80
-192 100 -236 21 -44 75 -165 121 -269 102 -230 149 -301 266 -408 140 -129
199 -209 291 -397 44 -91 97 -194 118 -228 59 -97 44 -88 -158 88 -68 59 -171
140 -230 180 -117 80 -170 130 -273 260 -77 96 -132 139 -177 139 -37 0 -70
-26 -78 -60 -6 -28 9 -54 114 -191 35 -46 85 -129 112 -184 59 -122 102 -185
165 -237 61 -51 68 -54 259 -127 351 -136 335 -123 183 -144 -177 -24 -265
-31 -912 -64 l-118 -6 8 24 c27 78 -6 126 -110 157 -93 28 -106 47 -105 149 0
37 -5 82 -12 98 -24 55 -100 156 -141 186 -74 53 -176 31 -212 -45 -25 -53
-17 -246 20 -456 l6 -35 -22 20 c-46 42 -110 153 -121 209 -5 31 -17 76 -25
99 -9 23 -20 89 -25 147 -18 206 -38 447 -48 595 -21 301 -32 390 -61 512 -31
131 -40 155 -73 191 -28 31 -90 31 -111 0 -20 -28 -21 -114 -2 -160 17 -40 31
-168 18 -168 -22 0 -117 142 -140 210 -22 61 -104 184 -178 265 -84 92 -152
133 -342 206 -65 25 -108 47 -103 52 5 5 109 12 232 16 l224 7 85 38 c47 21
126 48 175 60 148 37 226 87 245 157 10 36 13 38 58 42 26 3 128 3 227 1 152
-3 182 -7 190 -20z m2405 -2 c99 -7 116 -12 300 -84 107 -41 211 -79 230 -83
19 -4 69 -26 110 -50 41 -23 96 -54 122 -68 105 -60 150 -156 238 -502 27
-104 74 -262 104 -350 31 -88 67 -218 81 -290 14 -71 31 -147 37 -168 11 -36
72 -102 128 -138 l25 -16 -40 -57 c-80 -112 -104 -159 -121 -235 -21 -91 -45
-143 -134 -281 -37 -58 -70 -113 -73 -123 -7 -18 19 -197 46 -317 8 -36 21
-116 28 -177 13 -120 7 -157 -28 -170 -10 -3 -48 -28 -85 -55 -52 -38 -68 -56
-68 -74 0 -40 26 -39 118 4 198 93 464 149 862 182 135 12 319 32 410 46 180
27 560 102 710 139 52 13 134 31 182 40 48 9 134 32 190 51 57 20 139 41 184
49 182 31 264 74 439 233 170 154 237 211 289 246 87 57 467 235 526 246 34 7
106 8 186 4 l131 -7 -5 -24 c-2 -13 5 -43 16 -66 11 -23 39 -91 62 -152 23
-60 49 -117 56 -125 10 -10 31 -14 62 -13 63 2 326 67 379 94 l43 22 52 -42
c124 -97 191 -161 243 -229 30 -40 55 -78 55 -83 0 -5 -19 1 -42 15 -65 37
-190 76 -247 76 -28 0 -93 -9 -144 -21 -50 -11 -128 -27 -172 -35 -92 -18
-125 -35 -125 -67 0 -45 35 -57 109 -37 305 83 382 86 515 22 98 -47 122 -74
112 -127 -9 -48 -41 -66 -182 -105 -233 -64 -354 -114 -614 -250 -229 -119
-362 -179 -461 -208 -19 -6 -89 -26 -157 -46 l-123 -36 -25 30 c-43 50 -299
159 -426 180 -91 16 -903 16 -1060 1 -59 -6 -169 -21 -245 -35 -237 -42 -730
-126 -868 -147 -85 -12 -299 -11 -442 3 -95 9 -136 9 -190 -1 -107 -19 -168
-42 -219 -80 -78 -59 -85 -74 -88 -187 -2 -78 -9 -115 -30 -174 -15 -41 -41
-114 -57 -161 -17 -48 -44 -109 -62 -138 -135 -215 -172 -273 -260 -406 -173
-261 -231 -324 -324 -351 -32 -9 -65 -21 -73 -27 -12 -7 -38 3 -106 41 -103
59 -111 66 -198 192 -133 194 -221 375 -287 594 -61 203 -79 303 -89 481 -5
88 -14 221 -21 295 -8 98 -9 283 -4 670 11 750 11 742 2 771 -9 33 -69 106
-112 137 -18 13 -60 70 -99 135 -37 62 -105 164 -151 227 -108 148 -163 254
-270 525 -48 121 -112 272 -142 335 -30 63 -64 137 -75 165 -27 69 -78 160
-132 233 l-46 62 194 0 c167 0 210 3 317 25 198 41 252 47 469 55 205 8 362 5
560 -8z m3893 3 c270 -47 547 -187 802 -407 144 -125 172 -155 160 -173 -147
-208 -315 -490 -379 -634 -37 -82 -72 -145 -95 -170 -36 -39 -41 -41 -94 -41
l-56 0 20 57 c25 75 24 119 -6 180 -33 65 -73 88 -142 81 -40 -4 -80 -22 -186
-82 -74 -42 -149 -81 -166 -87 -18 -7 -83 -10 -159 -7 -119 3 -131 5 -196 36
-195 92 -391 302 -440 471 -21 71 -20 130 3 216 82 306 276 495 576 560 82 18
254 18 358 0z m-1945 -314 c9 -6 29 -12 44 -15 22 -5 31 -18 57 -85 26 -69 28
-84 19 -118 -5 -21 -15 -44 -21 -51 -5 -7 -13 -54 -16 -105 -5 -74 -11 -98
-29 -124 l-23 -33 -37 25 c-21 14 -53 28 -72 31 -19 4 -70 24 -113 46 -98 49
-111 71 -78 134 18 34 36 50 78 71 57 27 60 32 87 124 16 54 54 109 76 109 5
0 18 -4 28 -9z m-5608 -262 c54 -27 118 -68 142 -89 l43 -38 -60 5 c-50 4 -67
1 -105 -19 -62 -32 -65 -62 -12 -120 95 -103 156 -234 202 -428 90 -379 111
-454 135 -486 42 -56 107 -57 146 -4 26 36 71 250 73 345 1 78 0 82 -55 190
-31 61 -64 127 -73 148 l-16 38 47 -41 c28 -25 67 -46 99 -56 l52 -15 16 -72
c32 -151 39 -227 34 -392 l-4 -165 -31 -33 c-40 -41 -47 -67 -33 -115 11 -34
9 -49 -15 -123 -36 -109 -45 -288 -21 -392 9 -38 16 -70 16 -72 0 -2 -24 -11
-52 -21 -29 -9 -76 -27 -105 -40 -42 -19 -58 -21 -85 -14 -18 6 -65 10 -104
10 -61 0 -74 3 -85 20 -14 21 -67 31 -292 58 -61 8 -90 17 -130 43 -171 108
-192 115 -229 82 -31 -28 -23 -78 37 -225 5 -13 -5 -19 -57 -31 -303 -71 -496
-158 -623 -282 -34 -33 -93 -106 -130 -163 -51 -78 -89 -122 -154 -178 -47
-41 -88 -74 -92 -74 -3 0 1 35 9 77 13 70 12 83 -3 138 -9 33 -19 94 -22 135
-5 64 -3 78 14 99 26 32 133 53 229 45 59 -5 77 -3 117 16 133 63 200 250 132
369 -14 24 -24 44 -23 45 72 36 76 36 100 8 13 -15 34 -61 47 -102 13 -41 31
-81 39 -87 22 -18 293 -18 310 -1 7 7 12 27 12 44 0 28 -9 39 -62 81 -35 26
-89 72 -121 101 -32 30 -72 58 -88 64 l-29 10 49 56 c56 64 65 84 81 172 10
53 8 72 -9 139 -17 65 -21 121 -25 342 -8 386 -16 524 -37 617 -11 45 -19 87
-19 91 0 5 16 12 37 16 20 3 58 18 84 32 26 13 70 31 96 38 175 50 231 68 250
81 32 20 70 100 84 177 l12 65 79 -34 c44 -19 124 -57 178 -85z m7780 -696 c0
-10 -8 -48 -17 -85 -14 -55 -15 -75 -6 -109 12 -45 2 -75 -74 -224 -44 -86
-59 -104 -100 -121 -46 -20 -73 -17 -100 8 -25 23 -31 43 -10 35 6 -2 22 -1
35 4 29 11 31 68 3 93 -21 19 -88 42 -166 56 -116 22 -155 60 -134 130 l11 37
84 7 c123 10 165 25 314 109 74 42 141 77 148 77 6 0 12 -8 12 -17z m-8654
-180 c1 -26 6 -129 9 -228 4 -103 13 -209 21 -247 14 -61 14 -72 0 -123 -20
-66 -64 -118 -150 -179 -145 -102 -256 -124 -434 -86 -87 19 -125 22 -235 18
-162 -6 -217 -22 -416 -121 -199 -99 -227 -128 -325 -328 -41 -85 -92 -195
-114 -246 -68 -157 -196 -335 -291 -404 -35 -26 -262 -105 -371 -129 -30 -7
-63 -17 -73 -22 -17 -9 -17 -7 -6 14 16 32 118 172 172 236 49 59 121 185 161
279 14 35 55 104 91 155 93 133 121 182 155 278 40 108 47 186 26 268 -22 87
-48 134 -130 233 -39 48 -92 114 -118 147 -26 33 -64 73 -85 89 l-37 28 -148
-2 c-81 -2 -148 -1 -148 1 0 3 46 19 103 37 l102 32 490 4 c430 4 522 2 749
-17 361 -29 509 -14 681 69 89 43 144 92 244 219 36 45 66 80 69 77 2 -2 6
-26 8 -52z m7844 -413 c19 -6 61 -15 93 -20 32 -5 69 -16 82 -24 25 -16 100
-135 91 -143 -9 -9 -70 17 -121 51 -27 18 -94 61 -147 96 -54 34 -98 63 -98
65 0 4 54 -10 100 -25z m14 -118 c75 -52 136 -97 136 -101 0 -7 -165 -91 -180
-91 -40 0 -150 196 -158 281 l-5 51 35 -23 c20 -13 97 -66 172 -117z m-2074
-510 c0 -4 -16 -32 -34 -62 -19 -30 -49 -79 -67 -108 -17 -29 -33 -51 -36 -49
-8 9 -34 188 -28 197 14 22 165 42 165 22z m-3858 -165 c18 -14 53 -30 77 -37
52 -14 211 -14 307 -1 38 6 161 17 274 26 113 8 255 19 315 25 61 5 187 14
280 20 94 5 222 19 285 30 63 11 116 20 118 20 12 0 -3 -78 -22 -117 -24 -48
-86 -301 -86 -351 0 -58 76 -93 126 -57 12 8 43 54 70 102 30 54 79 120 125
169 47 50 78 93 82 111 8 39 -7 93 -34 127 -12 15 -20 29 -18 30 2 2 30 7 62
10 l57 7 2 -365 c1 -201 2 -376 2 -388 1 -20 -9 -24 -99 -45 -55 -13 -174 -43
-265 -68 -179 -48 -252 -63 -490 -95 -85 -12 -218 -35 -295 -51 -77 -17 -234
-50 -350 -73 -115 -24 -291 -65 -390 -91 -99 -26 -208 -51 -242 -56 -34 -4
-75 -15 -90 -22 -15 -8 -67 -24 -115 -36 -47 -11 -130 -41 -185 -65 -54 -25
-181 -68 -282 -95 -169 -47 -193 -51 -295 -51 -114 -1 -235 -10 -386 -30 -47
-7 -123 -15 -170 -19 -58 -5 -111 -18 -165 -39 -65 -26 -94 -32 -158 -32 -78
0 -355 -51 -487 -90 -120 -35 -256 -70 -271 -70 -11 0 -4 22 27 85 70 142 86
227 91 465 2 113 3 235 3 272 l0 67 28 -14 c15 -8 36 -12 46 -9 40 13 207 152
346 289 196 194 250 226 474 289 243 69 244 69 496 71 129 2 269 8 310 14 41
6 118 10 170 8 l95 -2 120 72 119 73 31 -30 c64 -62 157 -78 200 -35 26 25 29
38 25 124 l-2 54 51 -51 c28 -28 65 -62 83 -75z m-2762 -429 c5 -35 16 -93 24
-128 10 -48 13 -118 11 -260 -2 -107 1 -218 5 -245 11 -67 -12 -281 -39 -363
-22 -67 -68 -160 -101 -202 -19 -24 -20 -24 -20 -4 0 12 5 45 10 75 18 95 4
116 -159 228 l-75 51 -117 0 c-146 0 -169 7 -169 54 0 50 117 275 228 436 96
141 369 447 385 431 4 -4 12 -37 17 -73z m-2726 -261 l49 -12 27 -85 c50 -160
208 -383 315 -446 33 -19 54 -23 97 -21 31 1 60 -1 64 -5 7 -7 -167 -196 -237
-256 l-37 -32 -59 16 c-39 11 -121 18 -248 23 -182 6 -193 7 -247 34 -171 84
-219 296 -133 589 16 55 72 144 94 152 9 2 43 16 76 30 67 28 152 33 239 13z
m2646 -1131 c14 0 44 3 66 7 l41 7 -39 -133 c-64 -215 -85 -241 -270 -342
-115 -63 -197 -131 -245 -203 -36 -54 -73 -156 -153 -417 -32 -107 -57 -160
-126 -276 l-64 -106 -47 -7 c-52 -6 -187 6 -268 24 -96 21 -277 102 -330 147
-27 24 -76 64 -107 90 -32 25 -58 50 -58 54 0 11 -148 132 -210 171 -30 19
-176 93 -325 164 -368 178 -344 165 -315 160 14 -3 120 -14 235 -26 455 -44
748 -109 975 -216 145 -68 222 -88 330 -88 96 0 143 13 215 57 101 62 166 143
283 354 27 48 96 160 154 248 123 190 149 234 173 298 16 41 21 46 39 40 12
-4 32 -7 46 -7z m9435 -1385 c-20 -19 -267 -148 -430 -225 -283 -133 -538
-210 -825 -250 -204 -28 -369 -38 -730 -41 -400 -3 -518 2 -980 45 -63 6 -162
15 -220 20 -151 14 -481 57 -487 64 -6 5 170 11 277 10 142 -2 553 21 830 47
58 5 206 14 330 19 124 6 293 17 375 25 83 8 207 19 278 25 70 6 133 13 140
15 6 2 89 11 182 20 250 23 476 65 675 125 179 53 365 93 465 100 55 4 107 8
115 8 9 1 10 -1 5 -7z"/>
<path d="M16794 9992 c-6 -4 -39 -62 -73 -129 -119 -238 -175 -315 -289 -400
-148 -110 -210 -196 -318 -450 -25 -58 -73 -163 -107 -232 -72 -150 -81 -206
-35 -229 32 -15 62 -4 88 32 82 113 178 300 240 463 23 62 62 150 86 195 24
45 44 86 44 90 0 5 37 46 83 91 111 109 274 362 322 496 21 59 -2 99 -41 73z"/>
<path d="M17019 9260 c-51 -27 -58 -38 -69 -123 -6 -42 -29 -142 -50 -223 -22
-80 -40 -154 -40 -163 0 -9 -15 -43 -34 -74 -46 -76 -59 -120 -53 -175 5 -49
41 -92 76 -92 52 0 105 93 117 208 3 31 17 89 31 127 16 45 25 90 24 128 0 32
6 89 14 128 8 39 15 92 15 119 0 57 12 68 89 79 37 5 47 10 49 28 7 50 -98 71
-169 33z"/>
<path d="M16648 8719 c-36 -21 -115 -39 -171 -39 -66 0 -103 -16 -141 -60 -50
-60 -27 -120 46 -120 38 0 87 19 266 102 51 24 75 56 70 95 -2 22 -9 29 -28
30 -14 2 -33 -2 -42 -8z"/>
<path d="M15437 8498 c-8 -13 -20 -74 -27 -136 -13 -126 -9 -142 41 -142 26 0
32 7 59 66 34 75 39 147 15 193 -23 46 -66 55 -88 19z"/>
<path d="M16965 8450 c-32 -13 -105 -98 -105 -122 0 -48 22 -204 32 -224 14
-29 51 -45 123 -54 173 -21 310 -44 400 -68 147 -39 315 -34 713 24 233 33
271 50 272 122 0 41 -35 79 -81 86 -19 3 -113 13 -209 21 -447 41 -880 125
-1045 201 -54 25 -69 28 -100 14z"/>
<path d="M13465 7821 c-120 -19 -215 -62 -215 -96 0 -7 7 -18 15 -25 13 -11
32 -9 108 10 138 34 222 36 357 11 63 -12 148 -31 188 -42 79 -23 136 -22 282
1 86 14 105 27 96 64 -9 36 -67 50 -177 42 -68 -4 -103 -1 -160 13 -83 22
-406 36 -494 22z"/>
<path d="M14559 6241 c-74 -38 -138 -76 -143 -84 -5 -8 -6 -22 -3 -32 6 -14
15 -16 50 -11 23 4 107 9 187 12 157 5 182 13 207 66 18 35 -1 84 -38 103 -61
32 -115 21 -260 -54z"/>
<path d="M7832 5477 c-12 -7 -33 -28 -46 -47 -36 -54 -122 -255 -153 -360 -26
-87 -28 -109 -28 -255 0 -194 17 -259 96 -358 27 -34 61 -81 76 -104 51 -77
110 -91 170 -39 28 24 28 24 15 82 -8 33 -16 127 -19 209 -5 134 -3 168 23
320 32 194 39 387 15 468 -23 80 -89 117 -149 84z"/>
<path d="M6603 11614 c-3 -8 0 -49 7 -91 11 -71 9 -195 -7 -298 l-5 -39 -31
59 c-17 33 -38 89 -47 125 -20 73 -37 85 -68 45 -17 -21 -20 -36 -16 -83 10
-107 35 -215 62 -261 25 -44 27 -55 34 -224 5 -137 10 -184 23 -203 18 -28 24
-29 49 -11 12 9 21 37 28 90 11 78 21 95 32 55 3 -13 19 -39 35 -58 25 -29 32
-33 48 -24 10 6 19 25 21 43 2 22 8 31 21 31 10 0 25 10 34 23 l15 22 9 -34
c10 -38 32 -57 56 -48 8 3 25 37 36 75 21 66 21 72 6 109 -20 46 -36 125 -24
117 12 -7 45 -120 54 -183 7 -50 31 -91 55 -91 6 0 19 9 31 21 25 25 23 54
-28 284 -20 88 -39 185 -43 215 -8 65 -56 228 -71 247 -15 18 -44 16 -60 -3
-11 -13 -10 -43 5 -179 16 -150 17 -165 2 -194 -9 -17 -19 -31 -21 -31 -3 0
-2 31 1 68 7 76 -8 122 -48 143 -12 7 -36 27 -54 46 -28 30 -34 45 -44 121 -6
48 -18 97 -26 110 -17 26 -62 30 -71 6z m119 -486 c18 -35 22 -62 25 -148 2
-86 0 -99 -8 -70 -6 19 -17 51 -25 70 -36 95 -45 190 -18 190 2 0 14 -19 26
-42z"/>
<path d="M7400 11570 c-63 -22 -128 -40 -143 -40 -75 0 -84 -41 -40 -183 21
-71 30 -88 49 -93 30 -8 44 2 44 30 0 57 121 190 208 226 60 26 80 62 47 87
-27 19 -37 17 -165 -27z"/>
<path d="M6259 11363 c-12 -14 -16 -43 -15 -135 2 -163 25 -180 84 -60 38 79
41 126 9 173 -26 39 -56 48 -78 22z"/>
<path d="M6106 11328 c-8 -13 -21 -57 -29 -98 -9 -41 -18 -82 -22 -91 -7 -18
19 -49 40 -49 26 0 84 60 101 105 20 53 14 99 -18 132 -27 29 -54 29 -72 1z"/>
<path d="M7217 10636 c-10 -8 -43 -17 -74 -21 -71 -9 -102 -23 -108 -49 -2
-12 -8 -92 -13 -179 -9 -140 -13 -164 -37 -213 -15 -30 -38 -68 -52 -84 -24
-29 -25 -29 -50 -13 -16 10 -48 64 -87 142 -98 201 -179 302 -250 315 -118 22
-157 28 -191 29 -39 2 -40 1 -43 -34 -4 -46 30 -81 104 -109 61 -22 93 -25
142 -11 31 9 34 8 63 -32 17 -23 60 -103 96 -177 36 -74 77 -148 92 -163 14
-15 30 -47 36 -69 8 -32 16 -44 38 -51 38 -12 57 6 57 55 0 25 5 41 15 44 23
9 91 131 109 194 8 30 21 101 27 157 l11 101 47 12 c33 8 60 25 99 63 28 28
52 58 52 67 0 37 -48 52 -83 26z"/>
<path d="M5668 10585 c-40 -22 -62 -91 -54 -166 4 -46 18 -85 56 -158 71 -134
110 -184 163 -210 40 -20 53 -21 109 -13 35 6 95 20 133 31 39 12 129 33 200
46 136 24 224 52 256 81 27 24 34 76 15 112 -17 33 -77 62 -129 62 -66 0 -104
19 -173 88 l-68 67 39 5 c49 6 60 34 21 51 -20 9 -48 9 -117 1 -75 -9 -103
-18 -164 -52 -88 -48 -109 -50 -129 -12 -35 67 -105 97 -158 67z m412 -107 c0
-18 12 -74 27 -126 23 -80 25 -95 13 -103 -23 -14 -80 -29 -141 -35 -45 -5
-58 -3 -73 12 -25 24 -16 81 21 140 15 25 35 58 43 74 13 24 77 67 103 69 4 1
7 -13 7 -31z"/>
<path d="M7605 10426 c-16 -7 -43 -27 -58 -44 -33 -35 -34 -78 -2 -96 11 -6
22 -12 24 -13 2 -1 -4 -14 -13 -27 -19 -30 -21 -77 -4 -94 7 -7 22 -12 35 -12
26 0 30 -12 8 -30 -36 -30 -6 -71 62 -85 17 -3 34 -13 37 -21 7 -20 35 -18 90
7 46 20 76 63 76 109 0 21 -31 50 -53 50 -19 0 -23 15 -7 25 5 3 15 15 20 25
14 26 -19 60 -59 60 l-29 0 19 37 c20 39 24 79 11 100 -12 20 -121 26 -157 9z"/>
<path d="M13403 10623 c-22 -8 -15 -43 11 -52 33 -13 84 -95 92 -148 4 -25 4
-72 1 -104 -6 -69 -1 -95 21 -104 30 -11 44 20 49 112 8 124 -13 192 -77 255
-44 45 -66 54 -97 41z"/>
<path d="M8897 9446 c-36 -38 -86 -190 -101 -306 -8 -58 -20 -131 -27 -162
-16 -71 -6 -96 56 -140 42 -30 48 -39 72 -118 31 -103 54 -151 102 -210 58
-72 79 -90 105 -90 48 0 55 29 46 190 -7 123 -13 159 -40 235 -17 50 -37 131
-45 180 -7 50 -23 151 -34 225 -12 74 -26 150 -32 168 -18 55 -65 68 -102 28z"/>
<path d="M11062 7764 c-43 -40 -81 -179 -89 -329 -7 -137 3 -177 87 -335 133
-251 157 -314 195 -504 13 -70 32 -137 41 -151 35 -53 124 -52 160 2 22 34 14
143 -21 298 -36 156 -48 189 -142 384 -46 95 -87 190 -92 211 -5 23 -3 91 5
176 7 77 13 156 14 176 0 51 -33 88 -86 95 -35 4 -46 1 -72 -23z"/>
<path d="M7281 8584 c-12 -15 -21 -34 -21 -43 0 -9 -7 -25 -15 -35 -8 -11 -15
-31 -15 -45 0 -23 82 -196 120 -251 22 -33 38 -122 44 -246 5 -115 13 -137 56
-153 74 -25 110 28 110 164 0 67 6 103 30 175 35 106 38 165 10 220 -11 21
-65 84 -120 139 -93 93 -104 101 -140 101 -30 0 -43 -6 -59 -26z"/>
<path d="M8925 7215 c-17 -17 -25 -35 -25 -60 0 -31 8 -44 54 -88 29 -29 63
-71 76 -94 28 -51 69 -70 109 -50 52 25 51 103 -4 178 -13 19 -33 51 -45 71
-37 68 -120 89 -165 43z"/>
<path d="M7185 6559 c-32 -5 -94 -22 -136 -38 -43 -17 -140 -46 -216 -65 -163
-42 -259 -87 -286 -133 -22 -38 -15 -70 18 -85 19 -8 30 -6 58 11 40 25 170
60 225 61 20 0 52 -2 70 -6 22 -4 56 1 102 16 76 24 111 23 210 -5 35 -10 100
-17 180 -18 109 -1 131 2 172 20 131 60 111 204 -32 231 -79 15 -295 22 -365
11z"/>
<path d="M19017 9249 c-56 -29 -64 -55 -42 -136 45 -167 113 -341 210 -538
103 -209 134 -277 153 -346 l10 -36 -47 4 c-34 3 -57 -2 -91 -19 -51 -26 -52
-30 -30 -158 16 -93 9 -231 -21 -428 l-23 -147 -54 -18 c-77 -25 -141 -65
-163 -101 -36 -59 -27 -100 66 -283 93 -185 109 -235 90 -279 -26 -64 -183
-156 -321 -190 -128 -32 -214 -83 -214 -127 0 -12 21 -53 46 -90 l45 -68 -31
16 c-26 13 -37 14 -66 5 -19 -7 -41 -22 -49 -34 -8 -12 -21 -82 -30 -156 -26
-226 -53 -345 -116 -516 l-20 -52 -72 20 c-107 29 -199 28 -267 -3 -63 -30
-125 -79 -145 -118 -28 -55 -47 -188 -54 -387 -4 -110 -11 -205 -15 -212 -5
-9 -31 -10 -89 -6 -167 13 -365 -49 -441 -138 -58 -67 -79 -138 -106 -358 -5
-46 -15 -89 -20 -94 -21 -21 -88 -8 -176 32 -119 54 -129 56 -180 42 -66 -19
-97 -61 -134 -180 l-31 -100 -42 0 c-23 0 -78 9 -122 20 -84 21 -120 19 -168
-9 -41 -23 -62 -71 -97 -218 -37 -153 -71 -222 -127 -248 -55 -27 -140 -30
-227 -10 -95 23 -135 15 -189 -35 -46 -42 -50 -48 -136 -232 -33 -71 -63 -128
-68 -128 -4 1 -26 31 -48 67 -75 126 -135 140 -304 72 -81 -32 -108 -39 -134
-33 -39 9 -64 6 -100 -13 -23 -11 -28 -19 -23 -37 9 -35 191 -418 226 -475 34
-54 58 -64 95 -37 18 13 13 25 -84 252 -56 131 -99 240 -94 241 4 2 51 21 103
42 120 49 137 44 195 -51 58 -95 71 -108 117 -108 92 0 153 57 217 205 24 55
57 125 72 157 l28 56 47 -14 c70 -21 189 -18 265 7 175 57 231 128 284 354 14
61 27 115 30 122 3 8 16 8 51 -3 62 -19 180 -18 235 1 83 30 105 63 151 227
l13 47 85 -42 c80 -40 90 -42 170 -42 72 0 92 4 129 25 66 37 80 68 92 207 13
165 39 247 94 300 58 55 118 69 293 65 112 -2 139 0 175 16 23 10 47 25 54 33
24 30 35 111 38 293 3 185 18 295 46 347 16 31 70 59 112 59 21 0 85 -12 142
-26 l104 -26 -39 -78 c-22 -43 -44 -81 -50 -85 -16 -10 -12 -25 7 -25 27 0
277 127 302 154 13 14 21 31 18 39 -3 8 -34 22 -69 32 l-64 19 34 90 c51 135
88 293 106 456 9 79 19 146 21 148 2 2 36 -19 77 -46 133 -90 163 -97 208 -52
19 19 20 22 4 53 -9 17 -57 83 -105 145 -106 135 -113 146 -96 160 6 5 48 20
92 32 166 45 264 93 366 181 106 92 105 135 -10 364 -44 88 -85 173 -91 189
-17 47 -4 84 39 105 52 27 111 37 111 20 0 -8 16 -60 36 -116 24 -67 42 -104
54 -108 29 -9 69 12 120 65 43 44 51 59 65 122 20 90 11 151 -22 156 -12 2
-52 -6 -89 -18 -37 -11 -69 -18 -72 -15 -5 5 3 65 34 260 10 68 14 147 12 247
l-3 146 63 -1 c79 -1 115 22 120 76 5 58 -51 207 -168 442 -99 199 -137 292
-184 453 l-15 53 51 -43 c198 -168 282 -220 361 -220 58 0 107 25 107 55 0 49
-11 67 -41 67 -15 0 -31 -4 -34 -10 -3 -5 -12 -10 -20 -10 -14 0 -122 79 -245
180 -86 71 -157 110 -197 110 -15 -1 -45 -10 -66 -21z m323 -1848 c0 -40 -19
-134 -29 -144 -6 -6 -61 124 -61 147 0 6 55 23 78 25 7 1 12 -11 12 -28z
m-935 -1962 c6 -8 -45 -39 -65 -39 -6 0 -5 11 5 29 11 22 20 28 35 24 11 -3
23 -9 25 -14z"/>
</g>
</svg>
